<?xml version="1.0" encoding="utf-8"?>
<!-- Generator: Adobe Illustrator 15.1.0, SVG Export Plug-In . SVG Version: 6.00 Build 0)  -->
<!DOCTYPE svg PUBLIC "-//W3C//DTD SVG 1.1//EN" "http://www.w3.org/Graphics/SVG/1.1/DTD/svg11.dtd">
<svg version="1.1" id="Capa_1" xmlns="http://www.w3.org/2000/svg" xmlns:xlink="http://www.w3.org/1999/xlink" x="0px" y="0px"
	 width="512px" height="512px" viewBox="0 0 512 512" enable-background="new 0 0 512 512" xml:space="preserve">
<rect x="84.5" y="56.5" width="351" height="390"/>
<g>
	<path fill="#FFFFFF" d="M483.832,28.164C465.062,9.389,442.448,0,416.005,0H96.003C69.561,0,46.946,9.389,28.167,28.164
		C9.393,46.942,0.003,69.556,0.003,96v319.999c0,26.44,9.39,49.058,28.164,67.835c18.778,18.779,41.394,28.168,67.836,28.168
		h319.998c26.442,0,49.058-9.389,67.827-28.168c18.779-18.777,28.168-41.393,28.168-67.835V96
		C511.995,69.556,502.606,46.939,483.832,28.164z M426.669,277.332c0,5.777-2.114,10.783-6.329,14.999
		c-4.228,4.22-9.229,6.337-15.008,6.337H298.675V405.33c0,5.777-2.121,10.779-6.342,15c-4.215,4.226-9.22,6.336-14.999,6.336
		h-42.665c-5.776,0-10.777-2.11-14.999-6.336c-4.223-4.22-6.335-9.222-6.335-15V298.668H106.668c-5.777,0-10.775-2.117-14.999-6.337
		c-4.221-4.215-6.333-9.222-6.333-14.999v-42.669c0-5.777,2.112-10.778,6.333-15c4.223-4.223,9.221-6.335,14.999-6.335h106.668
		V106.665c0-5.778,2.112-10.78,6.335-14.999c4.222-4.224,9.222-6.337,14.999-6.337h42.665c5.778,0,10.783,2.113,14.999,6.337
		c4.22,4.219,6.342,9.221,6.342,14.999V213.33h106.658c5.776,0,10.778,2.112,15.007,6.335c4.218,4.22,6.329,9.221,6.329,14.999
		L426.669,277.332L426.669,277.332z"/>
</g>
</svg>
