<svg class="icon" style="width: 1em; height: 1em;vertical-align: middle;fill: currentColor;overflow: hidden;" viewBox="0 0 1024 1024" version="1.1" xmlns="http://www.w3.org/2000/svg"><path d="M849.306266 255.722012c-2.12356-1.54855-4.419803-2.922818-6.856351-4.089028L571.984291 95.495046l-7.917632-4.627662c-33.631198-16.998675-72.93535-16.75564-106.098265 1.113845L180.751347 252.016325l-5.758696 3.410088c-33.61401 20.757726-53.675608 56.807285-53.675608 96.442212l0 320.38418c0 38.868247 19.486588 74.535265 52.97948 95.918567l277.687328 160.297518c1.35688 0.904986 2.71396 1.686856 4.15858 2.487913l1.600115 0.922175c16.511405 9.013289 35.268488 13.779258 54.251617 13.779258 18.999318 0 37.737214-4.766968 54.230632-13.779258l2.367795-1.427632c0.800058-0.470081 1.599116-0.939163 2.401172-1.443621l270.691671-156.206492 9.151595-5.394543c31.944342-20.687174 51.344988-55.677251 51.848447-93.971487L902.685475 351.658767C902.685475 312.720967 882.275713 276.114586 849.306266 255.722012M849.234715 673.088238c-0.277412 20.008234-10.508475 38.504094-26.392506 48.803711l-279.21869 161.184317-1.828161 1.131033c-0.660752 0.38334-1.321704 0.78187-1.982456 1.182398-17.296273 9.169783-39.965903 8.577584-55.677251 0.018188l-2.001643-1.149221-12.996388 23.350768 11.030122-24.531967-168.978033-97.451128-108.935342-62.984696c-17.206534-11.015132-27.491161-29.840768-27.491161-50.386638l0-320.386378c0-20.965585 10.579227-40.018467 27.891689-50.717613L484.030923 138.644991c8.402903-4.522734 18.077144-6.907916 27.961242-6.907916 9.342266 0 18.475673 2.175125 27.22774 6.473011l277.617575 160.348883 3.58457 2.156938c17.781544 10.614403 28.811666 30.136368 28.811666 50.94466l0 321.427472L849.234715 673.088038zM612.298358 468.998011l0 213.031964c0 37.339884 57.90494 37.339884 57.90494 0l0-213.031964C670.202299 431.660326 612.298358 431.660326 612.298358 468.998011M451.357076 539.845976l0 142.254551c0 37.337685 57.903941 37.337685 57.903941 0l0-142.254551C509.261017 502.508092 451.357076 502.508092 451.357076 539.845976M290.417993 558.079414l0 124.054291c0 37.339884 57.903941 37.339884 57.903941 0l0-124.054291C348.320934 520.742728 290.417993 520.742728 290.417993 558.079414M681.581384 272.564393c-5.340979-6.68187-13.450481-11.100674-22.514335-11.100674l-96.269729 0c-37.353874 0-37.353874 57.903941 0 57.903941l34.311137 0c-73.579913 75.858968-177.677535 125.568664-284.541681 120.523285-37.355873-1.757408-37.181391 56.145333 0 57.902942 119.461005 5.636578 233.579833-48.2297 317.548102-130.45675l0 29.978075c0 37.337885 57.903941 37.337885 57.903941 0l0-99.921853C691.427108 287.770284 688.175513 278.862723 681.581384 272.564393" /></svg>