<svg class="icon" style="width: 1em; height: 1em;vertical-align: middle;fill: currentColor;overflow: hidden;" viewBox="0 0 1024 1024" version="1.1" xmlns="http://www.w3.org/2000/svg"><path d="M1018.624 330.144a213.952 213.952 0 0 0-90.88-137.632 215.584 215.584 0 0 0-299.328 57.696l-221.344 327.424a214.016 214.016 0 0 0-33.056 161.632 213.888 213.888 0 0 0 90.88 137.6 215.424 215.424 0 0 0 299.264-57.728l221.344-327.328a214.176 214.176 0 0 0 33.12-161.664z m-181.728-44.32c-5.536-1.248-52.032-10.176-91.072 47.456l-58.688 86.816a35.968 35.968 0 0 1-59.52-40.288l58.688-86.784c69.632-102.976 165.376-77.632 169.408-76.48a35.872 35.872 0 0 1-18.816 69.28z m-132.224 493.024a143.68 143.68 0 0 1-199.552 38.528 142.816 142.816 0 0 1-60.608-91.776 142.72 142.72 0 0 1 22.048-107.712l88.352-130.688a42.496 42.496 0 0 1 58.944-11.392l167.744 113.408a42.432 42.432 0 0 1 11.392 58.944l-88.32 130.688zM445.216 377.12A221.12 221.12 0 0 0 3.04 370.56a221.056 221.056 0 0 0 217.792 224.32 221.056 221.056 0 0 0 224.384-217.76z m-97.28 36h-0.96l-247.552-6.528a35.968 35.968 0 0 1-34.944-36.928 35.616 35.616 0 0 1 36.832-34.944l247.552 6.464a35.968 35.968 0 1 1-0.928 71.936z" fill="" /></svg>