<?xml version="1.0" encoding="iso-8859-1"?>
<!-- Generator: Adobe Illustrator 19.0.0, SVG Export Plug-In . SVG Version: 6.00 Build 0)  -->
<svg version="1.1" id="Capa_1" xmlns="http://www.w3.org/2000/svg" xmlns:xlink="http://www.w3.org/1999/xlink" x="0px" y="0px"
	 viewBox="0 0 512 512" style="enable-background:new 0 0 512 512;" xml:space="preserve">
<g>
	<g>
		<path d="M373.809,14.19c-3.95-1.126-7.929-1.668-11.849-1.668c-18.924,0-36.431,12.492-41.868,31.526l-4.533,15.899l44.27,11.497
			l-7.578,29.185l-44.953-11.678l-5.125,17.999l41.807,10.864l-7.578,29.185l-42.491-11.035l-4.814,16.884l3.085,1.246l39.998,16.14
			l2.784,0.251h0.01l44.712-18.391v-0.01l23.979-84.178c1.126-3.95,1.668-7.929,1.668-11.859
			C405.336,37.134,392.844,19.617,373.809,14.19z"/>
	</g>
</g>
<g>
	<g>
		<polygon points="181.154,0 83.64,46.229 94.614,79.947 134.774,60.731 147.788,87.926 104.031,108.87 114.413,140.738 
			173.998,163.923 191.033,52.722 217.574,52.722 		"/>
	</g>
</g>
<g>
	<g>
		<polygon points="216.921,82.871 204.248,165.612 260.447,141.291 260.98,141.512 260.98,141.502 277.683,82.871 		"/>
	</g>
</g>
<g>
	<g>
		<polygon points="339.61,201.188 325.027,199.862 325.017,199.862 260.859,173.963 192.651,203.469 99.308,167.22 99.308,414.516 
			428.36,414.516 428.36,164.667 		"/>
	</g>
</g>
<g>
	<g>
		<rect x="99.303" y="444.666" width="329.052" height="67.334"/>
	</g>
</g>
<g>
</g>
<g>
</g>
<g>
</g>
<g>
</g>
<g>
</g>
<g>
</g>
<g>
</g>
<g>
</g>
<g>
</g>
<g>
</g>
<g>
</g>
<g>
</g>
<g>
</g>
<g>
</g>
<g>
</g>
</svg>
