<?xml version="1.0" encoding="utf-8"?>
<!-- Generator: Adobe Illustrator 15.1.0, SVG Export Plug-In . SVG Version: 6.00 Build 0)  -->
<!DOCTYPE svg PUBLIC "-//W3C//DTD SVG 1.1//EN" "http://www.w3.org/Graphics/SVG/1.1/DTD/svg11.dtd">
<svg version="1.1" id="Capa_1" xmlns="http://www.w3.org/2000/svg" xmlns:xlink="http://www.w3.org/1999/xlink" x="0px" y="0px"
	 width="433.506px" height="433.506px" viewBox="0 0 433.506 433.506" enable-background="new 0 0 433.506 433.506"
	 xml:space="preserve">
<g>
	<g>
		<path fill="#FFFFFF" stroke="#000000" stroke-miterlimit="10" d="M76.888,302.386h-50.95c0,0-25.938-0.039-25.938,39.483
			c1.233,25.526,21.147,29.604,24.699,29.604c3.553,0,103.744,0,103.744,0s25.986,0.033,27.133-31.149
			c0.044-1.19,0.14-0.033,0.153-1.229c0.052-4.604,0-28.4,0-28.4c0.062-3.385,2.648-7.229,6.134-7.229h81.233
			c1.195,0,2.229,0.967,2.338,2.151l19.188,43.399c7.157,17.748,21.075,30.771,44.327,22.404
			c22.013-7.923,23.15-25.363,19.265-37.613l-47.713-144.634c-7.172-17.131-25.261-27.124-47.898-27.124h-48.578h-63.299
			c-60.559,0-111.36,70.553-42.577,138.374C78.637,301.511,78.078,302.386,76.888,302.386z"/>
		<circle fill="#FFFFFF" stroke="#000000" stroke-miterlimit="10" cx="358.346" cy="134.649" r="75.161"/>
	</g>
</g>
</svg>
